<svg width="300" height="300" viewBox="0 0 200 200" xmlns="http://www.w3.org/2000/svg">
    <!-- Dark background -->

    <!-- Thicker and wider blue petals (elliptical loops) - 8 petals, evenly spaced -->
    <g transform="rotate(0 100 100)">
        <ellipse cx="50" cy="100" rx="40" ry="25" fill="none" stroke="#1E90FF" stroke-width="8"/>
    </g>
    <g transform="rotate(45 100 100)">
        <ellipse cx="50" cy="100" rx="40" ry="25" fill="none" stroke="#1E90FF" stroke-width="8"/>
    </g>
    <g transform="rotate(90 100 100)">
        <ellipse cx="50" cy="100" rx="40" ry="25" fill="none" stroke="#1E90FF" stroke-width="8"/>
    </g>
    <g transform="rotate(135 100 100)">
        <ellipse cx="50" cy="100" rx="40" ry="25" fill="none" stroke="#1E90FF" stroke-width="8"/>
    </g>
    <g transform="rotate(180 100 100)">
        <ellipse cx="50" cy="100" rx="40" ry="25" fill="none" stroke="#1E90FF" stroke-width="8"/>
    </g>
    <g transform="rotate(225 100 100)">
        <ellipse cx="50" cy="100" rx="40" ry="25" fill="none" stroke="#1E90FF" stroke-width="8"/>
    </g>
    <g transform="rotate(270 100 100)">
        <ellipse cx="50" cy="100" rx="40" ry="25" fill="none" stroke="#1E90FF" stroke-width="8"/>
    </g>
    <g transform="rotate(315 100 100)">
        <ellipse cx="50" cy="100" rx="40" ry="25" fill="none" stroke="#1E90FF" stroke-width="8"/>
    </g>

    <!-- White center ring -->
    <circle cx="100" cy="100" r="30" fill="white" />

    <!-- Blue center dot -->
    <circle cx="100" cy="100" r="20" fill="#1E90FF" />
</svg>